<svg width="29" height="24" viewBox="0 0 29 24" fill="none" xmlns="http://www.w3.org/2000/svg">
<path d="M26.1 3.27273H21.7695L19.6217 0.242898C19.5688 0.16817 19.497 0.106897 19.4128 0.0645228C19.3286 0.0221487 19.2346 -1.53024e-05 19.1392 8.54492e-09H9.85915C9.76366 -1.58877e-05 9.66965 0.0221476 9.58546 0.0645218C9.50127 0.106896 9.42952 0.168169 9.37657 0.242898L7.22876 3.27273H2.9C2.13113 3.27353 1.39401 3.56113 0.850335 4.07242C0.306665 4.5837 0.000855471 5.27693 0 6V21.2727C0.000855471 21.9958 0.306665 22.689 0.850335 23.2003C1.39401 23.7116 2.13113 23.9992 2.9 24H26.1C26.8689 23.9992 27.606 23.7116 28.1497 23.2003C28.6933 22.689 28.9991 21.9958 29 21.2727V6C28.9991 5.27693 28.6933 4.5837 28.1497 4.07242C27.606 3.56113 26.8689 3.27353 26.1 3.27273ZM27.84 21.2727C27.8395 21.7066 27.656 22.1225 27.3298 22.4293C27.0036 22.7361 26.5613 22.9086 26.1 22.9091H2.9C2.43868 22.9086 1.99639 22.7361 1.67019 22.4293C1.34399 22.1225 1.1605 21.7066 1.16 21.2727V6C1.1605 5.56615 1.34399 5.15021 1.67019 4.84344C1.99639 4.53666 2.43868 4.36411 2.9 4.36364H7.53915C7.63464 4.36365 7.72865 4.34149 7.81284 4.29911C7.89702 4.25674 7.96878 4.19547 8.02173 4.12074L10.1695 1.09091H18.8288L20.9766 4.12074C21.0295 4.19547 21.1013 4.25674 21.1855 4.29911C21.2696 4.34149 21.3637 4.36365 21.4592 4.36364H26.1C26.5613 4.36411 27.0036 4.53666 27.3298 4.84344C27.656 5.15021 27.8395 5.56615 27.84 6V21.2727ZM14.5 7.63636C13.3529 7.63636 12.2315 7.95627 11.2777 8.55562C10.3239 9.15497 9.58049 10.0069 9.1415 11.0035C8.70251 12.0002 8.58765 13.097 8.81144 14.155C9.03524 15.2131 9.58764 16.185 10.3988 16.9479C11.2099 17.7107 12.2434 18.2302 13.3685 18.4406C14.4936 18.6511 15.6598 18.5431 16.7196 18.1303C17.7794 17.7174 18.6852 17.0183 19.3225 16.1213C19.9598 15.2243 20.3 14.1697 20.3 13.0909C20.2982 11.6448 19.6866 10.2584 18.5993 9.23579C17.5119 8.21322 16.0377 7.63802 14.5 7.63636ZM14.5 17.4545C13.5823 17.4545 12.6852 17.1986 11.9222 16.7191C11.1591 16.2397 10.5644 15.5582 10.2132 14.7608C9.86201 13.9634 9.77012 13.0861 9.94916 12.2396C10.1282 11.3931 10.5701 10.6156 11.219 10.0054C11.8679 9.39509 12.6947 8.97949 13.5948 8.81112C14.4949 8.64275 15.4278 8.72916 16.2757 9.05943C17.1235 9.38971 17.8482 9.94901 18.358 10.6666C18.8679 11.3842 19.14 12.2279 19.14 13.0909C19.1386 14.2478 18.6493 15.357 17.7794 16.175C16.9096 16.9931 15.7302 17.4532 14.5 17.4545Z" fill="white"/>
</svg>
