<svg width="80" height="70" viewBox="0 0 80 70" fill="none" xmlns="http://www.w3.org/2000/svg">
<g clip-path="url(#clip0_45_404)">
<path d="M67.25 11.6667H59.935L50.9342 0H31.0629L22.065 11.6667H14.75C12.4294 11.6667 10.2038 12.5885 8.56282 14.2295C6.92187 15.8704 6 18.096 6 20.4167L6 70H76V20.4167C76 18.096 75.0781 15.8704 73.4372 14.2295C71.7962 12.5885 69.5706 11.6667 67.25 11.6667ZM33.9329 5.83333H48.07L52.5675 11.6667H29.4325L33.9329 5.83333ZM70.1667 64.1667H11.8333V20.4167C11.8333 19.6431 12.1406 18.9013 12.6876 18.3543C13.2346 17.8073 13.9765 17.5 14.75 17.5H67.25C68.0235 17.5 68.7654 17.8073 69.3124 18.3543C69.8594 18.9013 70.1667 19.6431 70.1667 20.4167V64.1667Z" fill="black"/>
<path d="M41 23.3333C37.5388 23.3333 34.1554 24.3597 31.2775 26.2826C28.3997 28.2055 26.1566 30.9387 24.8321 34.1364C23.5076 37.3341 23.161 40.8527 23.8363 44.2474C24.5115 47.6421 26.1782 50.7603 28.6256 53.2077C31.0731 55.6551 34.1913 57.3218 37.5859 57.9971C40.9806 58.6723 44.4993 58.3258 47.697 57.0012C50.8947 55.6767 53.6278 53.4337 55.5507 50.5558C57.4736 47.6779 58.5 44.2945 58.5 40.8333C58.4954 36.1935 56.6501 31.745 53.3693 28.4641C50.0884 25.1832 45.6399 23.338 41 23.3333ZM41 52.5C38.6926 52.5 36.4369 51.8158 34.5184 50.5338C32.5998 49.2519 31.1044 47.4298 30.2214 45.298C29.3384 43.1662 29.1074 40.8204 29.5575 38.5573C30.0077 36.2942 31.1188 34.2154 32.7504 32.5838C34.382 30.9521 36.4608 29.841 38.724 29.3908C40.9871 28.9407 43.3328 29.1717 45.4646 30.0547C47.5965 30.9378 49.4185 32.4331 50.7005 34.3517C51.9824 36.2703 52.6667 38.5259 52.6667 40.8333C52.6667 43.9275 51.4375 46.895 49.2496 49.0829C47.0617 51.2708 44.0942 52.5 41 52.5Z" fill="black"/>
</g>
<defs>
<clipPath id="clip0_45_404">
<rect width="70" height="70" fill="white" transform="translate(6)"/>
</clipPath>
</defs>
</svg>
