<svg width="80" height="70" viewBox="0 0 80 70" fill="none" xmlns="http://www.w3.org/2000/svg">
<g clip-path="url(#clip0_152_485)">
<path d="M26.367 70.0204C22.3237 70.03 18.3686 68.8388 15.0032 66.5978C11.6377 64.3569 9.01336 61.1672 7.46288 57.433C5.91241 53.6988 5.5056 49.5883 6.29403 45.6226C7.08247 41.6569 9.03063 38.0146 11.8916 35.1575L42.8082 4.28458C45.5447 1.54197 49.2585 -0.00127583 53.1328 -0.00565168C57.007 -0.0100275 60.7244 1.52482 63.467 4.26125C66.2096 6.99768 67.7528 10.7115 67.7572 14.5858C67.7616 18.4601 66.2267 22.1774 63.4903 24.92L32.5707 55.79C30.8985 57.3837 28.677 58.2728 26.367 58.2728C24.0569 58.2728 21.8355 57.3837 20.1632 55.79C19.3497 54.9774 18.7043 54.0123 18.264 52.9501C17.8236 51.8879 17.597 50.7493 17.597 49.5994C17.597 48.4495 17.8236 47.3109 18.264 46.2486C18.7043 45.1864 19.3497 44.2214 20.1632 43.4088L49.0207 14.6038L53.1566 18.7308L24.2991 47.5417C23.7523 48.0886 23.4451 48.8304 23.4451 49.6037C23.4451 50.3771 23.7523 51.1189 24.2991 51.6658C24.8562 52.1975 25.5968 52.4942 26.367 52.4942C27.1371 52.4942 27.8777 52.1975 28.4349 51.6658L59.3749 20.7929C61.0168 19.1472 61.9376 16.9166 61.9349 14.592C61.9321 12.2673 61.006 10.0389 59.3603 8.39708C57.7146 6.75523 55.484 5.83438 53.1594 5.83711C50.8347 5.83985 48.6063 6.76594 46.9645 8.41167L16.0274 39.2817C13.2906 42.0239 11.7552 45.741 11.759 49.6153C11.7629 53.4895 13.3056 57.2036 16.0478 59.9404C18.79 62.6772 22.5071 64.2126 26.3814 64.2088C30.2557 64.2049 33.9697 62.6622 36.7066 59.92L71.7678 24.92L75.9036 29.0471L40.8424 64.0471C38.9414 65.9464 36.6842 67.4517 34.2001 68.4767C31.7161 69.5018 29.0542 70.0264 26.367 70.0204Z" fill="black"/>
</g>
<defs>
<clipPath id="clip0_152_485">
<rect width="70" height="70" fill="white" transform="translate(6)"/>
</clipPath>
</defs>
</svg>
