<svg width="23" height="26" viewBox="0 0 23 26" fill="none" xmlns="http://www.w3.org/2000/svg">
<path d="M22.0746 12.3325C22.122 12.3797 22.1596 12.4357 22.1852 12.4973C22.2108 12.5588 22.224 12.6248 22.224 12.6915C22.2239 12.7581 22.2107 12.8241 22.185 12.8857C22.1593 12.9472 22.1216 13.0032 22.0741 13.0502L11.5944 23.448C10.3483 24.683 8.65983 25.3761 6.89977 25.375C5.13971 25.3739 3.45206 24.6788 2.20754 23.4423C0.963025 22.2059 0.263434 20.5292 0.262452 18.7806C0.26147 17.0321 0.959178 15.3546 2.2023 14.1168L14.8833 1.34307C15.3098 0.917904 15.8166 0.580443 16.3746 0.349989C16.9325 0.119534 17.5308 0.000604909 18.135 2.30159e-06C18.7393 -0.000600306 19.3377 0.117135 19.8961 0.346477C20.4546 0.575818 20.962 0.912267 21.3895 1.33658C21.8169 1.7609 22.156 2.26477 22.3873 2.81936C22.6186 3.37396 22.7376 3.96841 22.7375 4.56873C22.7373 5.16905 22.6181 5.76346 22.3866 6.31796C22.1551 6.87247 21.8158 7.3762 21.3882 7.80035L8.70717 20.5742C8.47023 20.8103 8.18876 20.9978 7.87885 21.1259C7.56894 21.2539 7.23666 21.32 6.90102 21.3204C6.56538 21.3208 6.23294 21.2555 5.92273 21.1282C5.61251 21.0008 5.3306 20.814 5.0931 20.5784C4.85559 20.3428 4.66716 20.063 4.53858 19.755C4.40999 19.4469 4.34377 19.1168 4.34369 18.7833C4.34362 18.4499 4.4097 18.1197 4.53815 17.8116C4.66661 17.5035 4.85492 17.2236 5.09232 16.9879L15.7293 6.24476C15.7763 6.19714 15.8323 6.1592 15.8941 6.1331C15.9559 6.10701 16.0222 6.09327 16.0894 6.09267C16.1565 6.09208 16.2231 6.10463 16.2854 6.12963C16.3476 6.15462 16.4043 6.19156 16.4522 6.23833C16.5 6.28511 16.5381 6.3408 16.5643 6.40222C16.5905 6.46364 16.6043 6.52958 16.6048 6.59628C16.6053 6.66299 16.5925 6.72913 16.5673 6.79094C16.5421 6.85275 16.5048 6.90901 16.4577 6.95651L5.81772 17.7026C5.67484 17.8437 5.56137 18.0115 5.48379 18.1962C5.40622 18.3809 5.36607 18.579 5.36563 18.7791C5.36519 18.9793 5.40448 19.1776 5.48124 19.3626C5.55801 19.5477 5.67075 19.7159 5.81301 19.8576C5.95527 19.9993 6.12426 20.1118 6.31031 20.1886C6.49636 20.2654 6.69583 20.305 6.8973 20.3051C7.09876 20.3052 7.29828 20.2659 7.48443 20.1893C7.67057 20.1128 7.83971 20.0005 7.98214 19.8589L20.6632 7.08513C20.9956 6.75544 21.2595 6.36391 21.4396 5.93289C21.6197 5.50187 21.7126 5.03983 21.7129 4.57314C21.7133 4.10645 21.621 3.64427 21.4415 3.213C21.262 2.78173 20.9988 2.38982 20.6668 2.05966C20.3348 1.7295 19.9405 1.46756 19.5066 1.2888C19.0727 1.11004 18.6076 1.01797 18.1378 1.01784C17.6681 1.01771 17.2029 1.10953 16.7689 1.28805C16.3348 1.46658 15.9405 1.7283 15.6083 2.05828L2.92733 14.832C2.40533 15.3502 1.99119 15.9656 1.70855 16.6428C1.42591 17.3201 1.28031 18.046 1.28007 18.7792C1.27983 19.5124 1.42494 20.2384 1.70713 20.9158C1.98932 21.5933 2.40305 22.2089 2.92471 22.7275C3.44637 23.2461 4.06574 23.6575 4.74746 23.9383C5.42917 24.2191 6.15988 24.3638 6.89786 24.364C7.63584 24.3643 8.36665 24.2201 9.04855 23.9397C9.73045 23.6594 10.3501 23.2484 10.8721 22.7301L21.3521 12.332C21.3995 12.2849 21.4559 12.2476 21.5179 12.2221C21.5799 12.1966 21.6463 12.1835 21.7134 12.1836C21.7805 12.1836 21.8469 12.1968 21.9089 12.2224C21.9709 12.2479 22.0272 12.2854 22.0746 12.3325Z" fill="white"/>
</svg>
