<svg width="29" height="29" viewBox="0 0 29 29" fill="none" xmlns="http://www.w3.org/2000/svg">
<path d="M14.5 7.85417C13.1856 7.85417 11.9007 8.24394 10.8078 8.97419C9.71487 9.70445 8.86306 10.7424 8.36005 11.9567C7.85704 13.1711 7.72543 14.5074 7.98187 15.7965C8.2383 17.0857 8.87125 18.2699 9.80069 19.1993C10.7301 20.1288 11.9143 20.7617 13.2035 21.0181C14.4926 21.2746 15.8289 21.143 17.0433 20.6399C18.2576 20.1369 19.2956 19.2851 20.0258 18.1922C20.7561 17.0993 21.1458 15.8144 21.1458 14.5C21.1438 12.738 20.443 11.0488 19.1971 9.80288C17.9512 8.55698 16.262 7.85616 14.5 7.85417ZM14.5 19.9375C13.4246 19.9375 12.3733 19.6186 11.4791 19.0211C10.5849 18.4236 9.88796 17.5744 9.4764 16.5808C9.06485 15.5873 8.95717 14.494 9.16698 13.4392C9.37679 12.3844 9.89466 11.4156 10.6551 10.6551C11.4156 9.89466 12.3844 9.37679 13.4392 9.16698C14.494 8.95717 15.5873 9.06485 16.5808 9.4764C17.5744 9.88796 18.4236 10.5849 19.0211 11.4791C19.6186 12.3733 19.9375 13.4246 19.9375 14.5C19.9359 15.9416 19.3625 17.3237 18.3431 18.3431C17.3237 19.3625 15.9416 19.9359 14.5 19.9375ZM21.1458 0H7.85417C5.77184 0.00235863 3.77547 0.830606 2.30304 2.30304C0.830606 3.77547 0.00235863 5.77184 0 7.85417V21.1458C0.00235863 23.2282 0.830606 25.2245 2.30304 26.697C3.77547 28.1694 5.77184 28.9976 7.85417 29H21.1458C23.2282 28.9976 25.2245 28.1694 26.697 26.697C28.1694 25.2245 28.9976 23.2282 29 21.1458V7.85417C28.9976 5.77184 28.1694 3.77547 26.697 2.30304C25.2245 0.830606 23.2282 0.00235863 21.1458 0ZM27.7917 21.1458C27.7897 22.9078 27.0889 24.597 25.8429 25.8429C24.597 27.0889 22.9078 27.7897 21.1458 27.7917H7.85417C6.09219 27.7897 4.40296 27.0889 3.15705 25.8429C1.91115 24.597 1.21032 22.9078 1.20833 21.1458V7.85417C1.21032 6.09219 1.91115 4.40296 3.15705 3.15705C4.40296 1.91115 6.09219 1.21032 7.85417 1.20833H21.1458C22.9078 1.21032 24.597 1.91115 25.8429 3.15705C27.0889 4.40296 27.7897 6.09219 27.7917 7.85417V21.1458ZM23.5625 6.64583C23.5625 6.88482 23.4916 7.11844 23.3589 7.31715C23.2261 7.51586 23.0374 7.67073 22.8166 7.76219C22.5958 7.85364 22.3528 7.87757 22.1184 7.83095C21.884 7.78433 21.6687 7.66924 21.4997 7.50025C21.3308 7.33127 21.2157 7.11596 21.1691 6.88157C21.1224 6.64717 21.1464 6.40422 21.2378 6.18342C21.3293 5.96263 21.4841 5.77391 21.6829 5.64114C21.8816 5.50837 22.1152 5.4375 22.3542 5.4375C22.6745 5.43787 22.9817 5.56529 23.2082 5.79182C23.4347 6.01834 23.5621 6.32548 23.5625 6.64583Z" fill="white"/>
</svg>
