<svg width="24" height="22" viewBox="0 0 24 22" fill="none" xmlns="http://www.w3.org/2000/svg">
<path d="M16.2987 7.288L17.7027 8.713L11.9097 14.42C11.5238 14.807 11.0137 15 10.5027 15C9.99175 15 9.47775 14.805 9.08675 14.415L6.30475 11.719L7.69675 10.282L10.4897 12.989L16.2987 7.288ZM23.6377 12.451L19.3857 20.413C18.8638 21.392 17.8498 22 16.7397 22H7.28175C6.17475 22 5.16075 21.394 4.63775 20.418L0.36675 12.46C-0.12225 11.548 -0.12225 10.46 0.36675 9.549L4.63875 1.582C5.16175 0.606 6.17475 0 7.28275 0H16.7397C17.8498 0 18.8638 0.608 19.3857 1.587L23.6377 9.549C24.1227 10.457 24.1227 11.542 23.6377 12.45V12.451ZM21.8737 10.493L17.6217 2.53C17.4468 2.203 17.1088 2.001 16.7388 2.001H7.28275C6.91375 2.001 6.57575 2.203 6.40175 2.528L2.12875 10.495C1.95775 10.814 1.95775 11.195 2.12875 11.515L6.39975 19.473C6.57475 19.799 6.91175 20 7.28075 20H16.7377C17.1077 20 17.4458 19.797 17.6208 19.471L21.8727 11.508C22.0427 11.19 22.0437 10.81 21.8737 10.493Z" fill="#D67C1C"/>
</svg>
